<?xml version="1.0" encoding="utf-8"?>
<!-- Generator: Adobe Illustrator 21.0.2, SVG Export Plug-In . SVG Version: 6.00 Build 0)  -->
<svg version="1.1" id="Modalità_Isolamento" xmlns="http://www.w3.org/2000/svg" xmlns:xlink="http://www.w3.org/1999/xlink"
	 x="0px" y="0px" viewBox="0 0 129 18.8" style="enable-background:new 0 0 129 18.8;" xml:space="preserve">
<style type="text/css">
	.st0{fill:#EB2136;}
	.st1{fill:#2E4486;}
</style>
<path class="st0" d="M8.8,14.7H1.1c-0.3,0-0.6,0.1-0.7,0.3C0.1,15.2,0,15.4,0,15.7v1.8c0,0.3,0.1,0.6,0.3,0.7
	c0.2,0.2,0.5,0.3,0.7,0.3h7.7V14.7z M21.6,15c-0.2-0.2-0.5-0.3-0.7-0.3h-7.7v3.9h7.7c0.3,0,0.6-0.1,0.7-0.3c0.2-0.2,0.3-0.5,0.3-0.7
	v-1.8C21.9,15.4,21.8,15.2,21.6,15 M21.6,7.8c-0.2-0.2-0.5-0.3-0.7-0.3h-7.7v3.9h7.7c0.3,0,0.6-0.1,0.7-0.3c0.2-0.2,0.3-0.5,0.3-0.7
	V8.5C21.9,8.2,21.8,8,21.6,7.8 M8.8,7.5H1.1c-0.3,0-0.6,0.1-0.7,0.3C0.1,8,0,8.2,0,8.5v1.8c0,0.3,0.1,0.6,0.3,0.7
	c0.2,0.2,0.5,0.3,0.7,0.3h7.7V7.5z M20.8,4.2H1.1c-0.3,0-0.6-0.1-0.7-0.3C0.1,3.7,0,3.4,0,3.1V1.3C0,1,0.1,0.8,0.3,0.6
	c0.2-0.2,0.5-0.3,0.7-0.3h19.8c0.3,0,0.6,0.1,0.7,0.3c0.2,0.2,0.3,0.5,0.3,0.7v1.8c0,0.3-0.1,0.6-0.3,0.7
	C21.4,4.1,21.1,4.2,20.8,4.2"/>
<path class="st1" d="M27.1,17.1c-0.4-0.3-0.4-0.6,0.1-1.4l0.3-0.6c0.5-0.8,0.7-1,1.1-0.8c1.4,0.8,3,1.5,4.9,1.5c2,0,3.4-0.9,3.4-2.2
	c0-1.5-1.7-2.1-3.7-3c-2.7-1.1-5.3-2.3-5.3-5.3c0-3.1,2.8-5.3,6.9-5.3c2.1,0,4,0.5,5.5,1.3c0.4,0.3,0.4,0.5-0.1,1.4l-0.3,0.5
	c-0.5,0.9-0.7,1-1,0.8C37.5,3.4,36.4,3,35,3c-1.8,0-3.1,0.9-3.1,2c0,1.3,1.7,1.9,3.6,2.7c2.9,1.2,5.5,2.4,5.5,5.7
	c0,3.2-2.5,5.4-7.3,5.4C31.1,18.8,28.8,18.2,27.1,17.1"/>
<path class="st1" d="M51.3,8.6c0-1.8-1.5-2.1-3.5-2.1h-1v4.4c0.3,0,0.8,0,1.2,0C50.2,10.8,51.3,10.2,51.3,8.6 M43,18.1V4.2
	c0-0.5,0.1-0.5,1.2-0.5h3.2c4.7,0,7.9,1.1,7.9,4.8c0,3.3-2.7,5-7,5c-0.5,0-1,0-1.4-0.1v4.7c0,0.4-0.1,0.5-1.8,0.5h-0.3
	C43.2,18.6,43,18.6,43,18.1"/>
<path class="st1" d="M64.8,12.9l-2.4-6.2l-2.3,6.2H64.8z M69.2,18.6h-0.3c-1.5,0-1.9-0.1-2-0.5l-0.9-2.4H59l-1,2.4
	c-0.2,0.4-0.4,0.5-1.9,0.5h-0.3c-1.5,0-1.8-0.1-1.6-0.6l6.4-13.8c0.2-0.4,0.3-0.4,1.8-0.4h0.2c1.5,0,1.7,0.1,1.8,0.4L70.9,18
	C71.1,18.5,70.7,18.6,69.2,18.6"/>
<path class="st1" d="M81,8.3c0-1.6-1.4-1.9-3.3-1.9h-1.4v4.1h1.3C79.6,10.4,81,9.8,81,8.3 M85.4,18.6h-1.8c-1,0-1.4-0.1-1.6-0.3
	L78.8,14c-0.6-0.8-1-1-1.9-1h-0.5v5.1c0,0.4-0.1,0.5-1.8,0.5h-0.3c-1.7,0-1.8,0-1.8-0.5V4.2c0-0.5,0.1-0.5,1.2-0.5h3.7
	c5.1,0,7.6,1.3,7.6,4.5c0,1.9-1.2,3.3-3.5,4.2c0.3,0.3,0.7,0.6,1,1l3.8,4.7C86.5,18.5,86.3,18.6,85.4,18.6"/>
<path class="st1" d="M104.2,18.1V4.2c0-0.4,0.1-0.5,1.8-0.5h0.3c1.6,0,1.8,0,1.8,0.5v11.7h6.7c0.3,0,0.4,0.1,0.4,1.2v0.2
	c0,1.2-0.1,1.2-0.4,1.2h-9.4C104.3,18.6,104.2,18.5,104.2,18.1"/>
<path class="st1" d="M117.4,18.1V4.2c0-0.5,0.1-0.5,1.2-0.5h9.9c0.3,0,0.4,0,0.4,1.2v0.2c0,1.2-0.1,1.2-0.4,1.2h-7.2v3.3h6.2
	c0.3,0,0.3,0.1,0.3,1.2v0.2c0,1.2-0.1,1.2-0.3,1.2h-6.2v3.5h7.3c0.3,0,0.4,0.1,0.4,1.2v0.2c0,1.2-0.1,1.2-0.4,1.2h-10
	C117.4,18.6,117.4,18.6,117.4,18.1"/>
<path class="st1" d="M92.1,7.4L92.1,7.4l0-3.1c0-0.4-0.1-0.5-1.8-0.5H90c-1.7,0-1.8,0-1.8,0.5v13.9c0,0.4,0.1,0.5,1.8,0.5h0.3
	c1.6,0,1.8,0,1.8-0.5v-2.1l0,0V7.4z"/>
<path class="st1" d="M97,11.6c-0.2-0.2-0.2-0.5,0-0.8l4.9-6.4c0.3-0.5,0.3-0.6-1.1-0.6H100c-1.8,0-2,0-2.3,0.4l-4.2,5.5l-0.9,1.1
	c-0.2,0.2-0.2,0.5,0,0.7l0.9,1.1l4.2,5.5c0.3,0.4,0.5,0.4,2.3,0.4h0.8c1.4,0,1.4-0.1,1.1-0.6L97,11.6z"/>
</svg>
